<svg width="250" height="123" viewBox="0 0 250 200" fill="none" xmlns="http://www.w3.org/2000/svg">
<path d="M219 127C219 125.616 219.411 124.262 220.18 123.111C220.949 121.96 222.042 121.063 223.321 120.533C224.6 120.003 226.008 119.864 227.366 120.135C228.723 120.405 229.971 121.071 230.95 122.05C231.929 123.029 232.595 124.277 232.865 125.634C233.136 126.992 232.997 128.4 232.467 129.679C231.937 130.958 231.04 132.051 229.889 132.82C228.738 133.589 227.384 134 226 134C224.143 134 222.363 133.262 221.05 131.95C219.737 130.637 219 128.857 219 127ZM63 134C61.1435 134 59.363 133.262 58.0503 131.95C56.7375 130.637 56 128.857 56 127C56 125.143 56.7375 123.363 58.0503 122.05C59.363 120.737 61.1435 120 63 120H24C22.1435 120 20.363 119.263 19.0503 117.95C17.7375 116.637 17 114.857 17 113C17 111.143 17.7375 109.363 19.0503 108.05C20.363 106.737 22.1435 106 24 106H64C65.8565 106 67.637 105.263 68.9497 103.95C70.2625 102.637 71 100.857 71 99C71 97.1435 70.2625 95.363 68.9497 94.0503C67.637 92.7375 65.8565 92 64 92H39C37.1435 92 35.363 91.2625 34.0503 89.9497C32.7375 88.637 32 86.8565 32 85C32 83.1435 32.7375 81.363 34.0503 80.0503C35.363 78.7375 37.1435 78 39 78H79C77.1435 78 75.363 77.2625 74.0503 75.9497C72.7375 74.637 72 72.8565 72 71C72 69.1435 72.7375 67.363 74.0503 66.0503C75.363 64.7375 77.1435 64 79 64H136C137.857 64 139.637 64.7375 140.95 66.0503C142.262 67.363 143 69.1435 143 71C143 72.8565 142.262 74.637 140.95 75.9497C139.637 77.2625 137.857 78 136 78H200C201.857 78 203.637 78.7375 204.95 80.0503C206.263 81.363 207 83.1435 207 85C207 86.8565 206.263 88.637 204.95 89.9497C203.637 91.2625 201.857 92 200 92H222C223.857 92 225.637 92.7375 226.95 94.0503C228.263 95.363 229 97.1435 229 99C229 100.857 228.263 102.637 226.95 103.95C225.637 105.263 223.857 106 222 106H203C201.143 106 199.363 106.737 198.05 108.05C196.737 109.363 196 111.143 196 113C196 114.857 196.737 116.637 198.05 117.95C199.363 119.263 201.143 120 203 120H209C210.857 120 212.637 120.737 213.95 122.05C215.263 123.363 216 125.143 216 127C216 128.857 215.263 130.637 213.95 131.95C212.637 133.262 210.857 134 209 134H63Z" fill="#E2E2E2"/>
<path d="M165 140H92C86.1883 140.026 80.6001 137.763 76.444 133.7C74.4056 131.728 72.7848 129.365 71.6779 126.753C70.5709 124.142 70.0005 121.334 70.0005 118.497C70.0005 115.661 70.5709 112.853 71.6779 110.241C72.7848 107.63 74.4056 105.267 76.444 103.294C80.601 99.2342 86.1891 96.9732 92 97.0004C92.506 97.0004 93.023 97.0184 93.537 97.0524C93.1794 95.0549 92.9997 93.0297 93 91.0004C92.9994 84.7234 94.7364 78.5688 98.0187 73.2184C101.301 67.8679 106 63.5305 111.596 60.6867C117.192 57.8429 123.466 56.6036 129.723 57.1063C135.979 57.6089 141.975 59.8338 147.045 63.5344C152.731 67.6869 156.99 73.4986 159.239 80.1704C160.322 80.0572 161.411 80.0004 162.5 80.0004C166.574 79.9917 170.61 80.7929 174.372 82.3574C177.987 83.8571 181.279 86.0399 184.067 88.7864C186.846 91.5091 189.067 94.7484 190.604 98.3224C192.192 102.011 193.007 105.985 193 110C192.998 117.595 190.092 124.901 184.878 130.422C179.674 135.973 172.585 139.381 165 139.978V140Z" fill="white" stroke="black" stroke-width="2.5" stroke-miterlimit="10" stroke-linecap="round"/>
<path d="M137 69C140.204 69.8534 143.129 71.5288 145.487 73.8603C147.844 76.1919 149.551 79.0987 150.44 82.293" stroke="black" stroke-width="2.5" stroke-miterlimit="10" stroke-linecap="round"/>
<path d="M108 101C108 102.857 108.737 104.637 110.05 105.95C111.363 107.263 113.143 108 115 108C116.857 108 118.637 107.263 119.95 105.95C121.263 104.637 122 102.857 122 101" stroke="black" stroke-width="2.5" stroke-miterlimit="10" stroke-linecap="round"/>
<path d="M137 101C137 102.857 137.737 104.637 139.05 105.95C140.363 107.263 142.143 108 144 108C145.857 108 147.637 107.263 148.95 105.95C150.263 104.637 151 102.857 151 101" stroke="black" stroke-width="2.5" stroke-miterlimit="10" stroke-linecap="round"/>
<path d="M122 120H136.5" stroke="black" stroke-width="2.5" stroke-miterlimit="10" stroke-linecap="round"/>
<path d="M73.3681 87V85.368L80.0241 77.304H73.8801V75.576H82.5691V77.092L75.9121 85.272H82.7291V87H73.3681ZM56.5061 76V73.756L65.6581 62.668H57.2061V60.292H69.1561V62.382L60.0061 73.624H69.3761V76H56.5061Z" fill="black"/>
</svg>
